<?xml version="1.0" encoding="UTF-8"?>
<svg width="86px" height="24px" viewBox="0 0 86 24" version="1.1" xmlns="http://www.w3.org/2000/svg" xmlns:xlink="http://www.w3.org/1999/xlink">
    <defs></defs>
    <g id="Page-1" stroke="none" stroke-width="1" fill="none" fill-rule="evenodd">
        <g id="Logo-Blue" fill="#377FEA">
            <g>
                <path d="M44.7271545,17.7118699 C46.9515447,17.7118699 48.2627642,16.7518699 49.0588618,15.6982114 L47.443252,14.1762602 C46.8110569,15.0660163 45.9447154,15.5343089 44.8442276,15.5343089 C42.8071545,15.5343089 41.4256911,13.9655285 41.4256911,11.7645528 C41.4256911,9.56357724 42.8071545,8.01821138 44.8442276,8.01821138 C45.9447154,8.01821138 46.8110569,8.4396748 47.443252,9.32943089 L49.0588618,7.85430894 C48.2627642,6.77723577 46.9515447,5.84065041 44.7271545,5.84065041 C41.3086179,5.84065041 38.8969106,8.34601626 38.8969106,11.7645528 C38.8969106,15.1830894 41.3086179,17.7118699 44.7271545,17.7118699 Z M53.3697561,17.4308943 L53.3697561,9.72747967 C53.8614634,8.90796748 55.2429268,8.20552846 56.2965854,8.20552846 C56.6009756,8.20552846 56.835122,8.22894309 57.0458537,8.27577236 L57.0458537,5.84065041 C55.5941463,5.84065041 54.2360976,6.68357724 53.3697561,7.76065041 L53.3697561,6.12162602 L50.9112195,6.12162602 L50.9112195,17.4308943 L53.3697561,17.4308943 Z M59.9518699,4.7401626 C60.7947967,4.7401626 61.4738211,4.06113821 61.4738211,3.21821138 C61.4738211,2.37528455 60.7947967,1.69626016 59.9518699,1.69626016 C59.1089431,1.69626016 58.4299187,2.37528455 58.4299187,3.21821138 C58.4299187,4.06113821 59.1089431,4.7401626 59.9518699,4.7401626 Z M61.1694309,17.4308943 L61.1694309,6.12162602 L58.7108943,6.12162602 L58.7108943,17.4308943 L61.1694309,17.4308943 Z M67.9154472,17.7118699 C70.9593496,17.7118699 72.6217886,16.1899187 72.6217886,14.1762602 C72.6217886,9.68065041 65.7847154,11.179187 65.7847154,9.18894309 C65.7847154,8.39284553 66.580813,7.78406504 67.8686179,7.78406504 C69.2969106,7.78406504 70.5378862,8.39284553 71.2169106,9.14211382 L72.2471545,7.40943089 C71.2403252,6.5196748 69.7886179,5.84065041 67.8686179,5.84065041 C65.0120325,5.84065041 63.4198374,7.40943089 63.4198374,9.25918699 C63.4198374,13.6143089 70.2569106,12.0221138 70.2569106,14.2465041 C70.2569106,15.1362602 69.4842276,15.7450407 68.0091057,15.7450407 C66.5573984,15.7450407 64.9886179,14.9957724 64.1925203,14.1762602 L63.0686179,15.9323577 C64.2393496,17.0796748 65.9720325,17.7118699 67.9154472,17.7118699 Z M80.8429268,17.7118699 C79.4146341,17.7118699 78.1502439,17.0562602 77.2136585,15.8621138 L77.2136585,21.739187 L74.755122,21.739187 L74.755122,6.12162602 L77.2136585,6.12162602 L77.2136585,7.66699187 C78.0565854,6.54308943 79.3678049,5.84065041 80.8429268,5.84065041 C83.7697561,5.84065041 85.8536585,8.04162602 85.8536585,11.7645528 C85.8536585,15.4874797 83.7697561,17.7118699 80.8429268,17.7118699 Z M80.1170732,15.5343089 C82.0604878,15.5343089 83.324878,13.9655285 83.324878,11.7645528 C83.324878,9.56357724 82.0604878,8.01821138 80.1170732,8.01821138 C78.9697561,8.01821138 77.7756098,8.67382114 77.2136585,9.51674797 L77.2136585,13.9889431 C77.7521951,14.8318699 78.9697561,15.5343089 80.1170732,15.5343089 Z" id="crisp"></path>
                <path d="M11.597126,18.9997332 L16.2565339,23.9039415 L19.846973,18.0528628 L29.4370578,16.9521675 L27.8150742,0.100198019 L0.103724433,3.28074883 L1.72570797,20.1327183 L11.597126,18.9997332 Z" id="Border" transform="translate(14.770391, 12.002070) rotate(0.250000) translate(-14.770391, -12.002070) "></path>
            </g>
        </g>
    </g>
</svg>
