<?xml version="1.0" encoding="UTF-8"?>
<svg width="135px" height="40px" viewBox="0 0 135 40" version="1.1" xmlns="http://www.w3.org/2000/svg" xmlns:xlink="http://www.w3.org/1999/xlink">
    <title>Brand</title>
    <defs>
        <linearGradient x1="60.3174532%" y1="83.8508034%" x2="45.5451812%" y2="31.5570942%" id="linearGradient-1">
            <stop stop-color="#003AB8" offset="0%"></stop>
            <stop stop-color="#3770EC" offset="100%"></stop>
        </linearGradient>
        <path d="M45.5873728,8.77067872 C45.5882411,8.7784546 45.5890789,8.78623384 45.5898863,8.79401627 L47.755939,29.6722167 C47.9258165,31.3096366 46.7444686,32.7780782 45.1086614,32.9628412 L32.1825634,34.4223293 L27.4155739,41.9764928 C26.9734253,42.6770612 26.0470701,42.8865519 25.3465017,42.4444033 C25.2474663,42.3818993 25.1560914,42.3080123 25.0742439,42.2242522 L18.9145634,35.9203293 L5.74433725,37.4090079 C4.0979516,37.5949658 2.61254371,36.4110551 2.42658587,34.7646695 C2.4250638,34.7511938 2.42363313,34.737708 2.42229394,34.7242129 L0.344440798,13.7855 C0.182246592,12.1510544 1.36453162,10.6900489 2.99686041,10.5077797 L42.2729851,6.12212548 C43.9196058,5.93826037 45.4035077,7.12405805 45.5873728,8.77067872 Z" id="path-2"></path>
        <filter x="-5.8%" y="-7.5%" width="111.6%" height="115.0%" filterUnits="objectBoundingBox" id="filter-3">
            <feMorphology radius="1.5" operator="erode" in="SourceAlpha" result="shadowSpreadInner1"></feMorphology>
            <feGaussianBlur stdDeviation="1.5" in="shadowSpreadInner1" result="shadowBlurInner1"></feGaussianBlur>
            <feOffset dx="1" dy="1" in="shadowBlurInner1" result="shadowOffsetInner1"></feOffset>
            <feComposite in="shadowOffsetInner1" in2="SourceAlpha" operator="arithmetic" k2="-1" k3="1" result="shadowInnerInner1"></feComposite>
            <feColorMatrix values="0 0 0 0 1   0 0 0 0 1   0 0 0 0 1  0 0 0 0.156523164 0" type="matrix" in="shadowInnerInner1"></feColorMatrix>
        </filter>
    </defs>
    <g id="Brand" stroke="none" fill="none">
        <g id="Text" stroke-width="1" fill-rule="evenodd" transform="translate(62, 5)" fill="#000000">
            <path d="M8.9701539,24.771028 C12.3429318,24.771028 14.3881269,23.3224299 15.6080678,21.6565421 L13.1323053,19.338785 C12.1635287,20.6787383 10.8359459,21.4030374 9.14955698,21.4030374 C5.9920628,21.4030374 3.9109871,18.9766355 3.9109871,15.5724299 C3.9109871,12.1682243 5.9920628,9.77803738 9.14955698,9.77803738 C10.8359459,9.77803738 12.1635287,10.4661215 13.1323053,11.8422897 L15.6080678,9.52453271 C14.3881269,7.85864486 12.3429318,6.41004673 8.9701539,6.41004673 C3.69570341,6.41004673 0,10.2850467 0,15.5724299 C0,20.896028 3.69570341,24.771028 8.9701539,24.771028 Z" id="Path" fill-rule="nonzero"></path>
            <path d="M22.4390619,24.3364486 L22.4390619,12.421729 C23.1925548,11.1904206 25.3095111,10.103972 26.8882582,10.103972 C27.3547062,10.103972 27.749393,10.1401869 28.0723185,10.2126168 L28.0723185,6.44626168 C25.8118397,6.44626168 23.730764,7.75 22.4390619,9.41588785 L22.4390619,6.84462617 L18.6715972,6.84462617 L18.6715972,24.3364486 L22.4390619,24.3364486 Z" id="Path" fill-rule="nonzero"></path>
            <path d="M32.7504757,4.70794393 C34.0421778,4.70794393 35.0827157,3.65771028 35.0827157,2.35397196 C35.0827157,1.05023364 34.0421778,0 32.7504757,0 C31.4946541,0 30.4182357,1.05023364 30.4182357,2.35397196 C30.4182357,3.65771028 31.4946541,4.70794393 32.7504757,4.70794393 Z M34.6521483,24.3364486 L34.6521483,6.84462617 L30.8846837,6.84462617 L30.8846837,24.3364486 L34.6521483,24.3364486 Z" id="Shape" fill-rule="nonzero"></path>
            <path d="M45.2147264,24.771028 C49.8792064,24.771028 52.4267301,22.4170561 52.4267301,19.338785 C52.4267301,12.385514 41.9495904,14.703271 41.9495904,11.588785 C41.9495904,10.3574766 43.2054119,9.4521028 45.1788458,9.4521028 C47.3316827,9.4521028 49.269236,10.3574766 50.3097738,11.5525701 L51.8885209,8.87266355 C50.3097738,7.46028037 48.0851757,6.41004673 45.1429652,6.41004673 C40.7655301,6.41004673 38.3256482,8.87266355 38.3256482,11.7336449 C38.3256482,18.4334112 48.802788,15.9707944 48.802788,19.411215 C48.802788,20.7873832 47.6546083,21.7651869 45.3941295,21.7651869 C43.1336507,21.7651869 40.7296495,20.5700935 39.5097085,19.3025701 L37.787439,22.0549065 C39.5814698,23.8294393 42.2725159,24.771028 45.2147264,24.771028 Z" id="Path" fill-rule="nonzero"></path>
            <path d="M65.3215483,24.771028 C69.8066252,24.771028 73,21.3306075 73,15.5724299 C73,9.81425234 69.8066252,6.41004673 65.3215483,6.41004673 C63.0610695,6.41004673 61.051755,7.49649533 59.7600528,9.23481308 L59.7600528,6.84462617 L55.9925882,6.84462617 L55.9925882,31 L59.7600528,31 L59.7600528,21.9100467 C61.1593969,23.7932243 63.1328307,24.771028 65.3215483,24.771028 Z M64.2092492,21.4030374 C62.451099,21.4030374 60.585307,20.3165888 59.7600528,19.0490654 L59.7600528,12.1320093 C60.585307,10.828271 62.451099,9.77803738 64.2092492,9.77803738 C67.1873403,9.77803738 69.0890129,12.2044393 69.0890129,15.5724299 C69.0890129,18.9766355 67.1873403,21.4030374 64.2092492,21.4030374 Z" id="Shape" fill-rule="nonzero"></path>
        </g>
        <g id="Icon" transform="translate(0, -4)">
            <g id="Border" transform="translate(24.0509, 24.3897) rotate(0.25) translate(-24.0509, -24.3897)">
                <use fill="url(#linearGradient-1)" fill-rule="evenodd" xlink:href="#path-2"></use>
                <use fill="black" fill-opacity="1" filter="url(#filter-3)" xlink:href="#path-2"></use>
                <path stroke-opacity="0.145623907" stroke="#000000" stroke-width="1" d="M42.3284713,6.61903722 C43.0145633,6.54242676 43.6667555,6.75116271 44.1665773,7.15057427 C44.6663991,7.54998582 45.0138506,8.14007298 45.0900424,8.8222775 L47.2586083,29.7238133 C47.3293906,30.4060716 47.1186676,31.0531261 46.7198525,31.5488622 C46.3210373,32.0445982 45.73413,32.3890158 45.0525628,32.4659983 L31.8878607,33.9524272 L26.9927434,41.7096325 C26.8453606,41.9431553 26.6172766,42.0948318 26.3676577,42.1512819 C26.1337909,42.2041698 25.8810213,42.1734705 25.658006,42.0481805 L19.0999572,35.3961896 L5.6882195,36.9121671 C5.00222548,36.9896496 4.3497685,36.7817427 3.84943941,36.3829668 C3.34911032,35.9841908 3.00090912,35.3945458 2.92414136,34.715288 L0.841996937,13.736125 C0.774416018,13.055106 0.986934938,12.4102204 1.38638334,11.9166031 C1.78583174,11.4229858 2.37220961,11.0806369 3.05234661,11.0046914 Z" stroke-linejoin="square"></path>
            </g>
        </g>
    </g>
</svg>